/* XPM */
static char *d7d00ccd632f4f7890b51207f9bd1125BkRcXjUkUq8K2tex[] = {
/* columns rows colors chars-per-pixel */
"64 64 91 1 ",
"  c #000105",
". c #01040B",
"X c #07090C",
"o c #090A0E",
"O c #000611",
"+ c #010914",
"@ c #0A0D14",
"# c #010C1C",
"$ c #04111F",
"% c #0A111C",
"& c #111115",
"* c #121319",
"= c #000E22",
"- c #010F2B",
"; c #011125",
": c #0B1423",
"> c #01132B",
", c #0A182E",
"< c #001533",
"1 c #001935",
"2 c #0A1C34",
"3 c #00163A",
"4 c #001B3B",
"5 c #111F39",
"6 c #05213F",
"7 c #001743",
"8 c #001D43",
"9 c #001E4B",
"0 c #011F52",
"q c #012145",
"w c #0C2646",
"e c #01234B",
"r c #01294D",
"t c #0C2A4C",
"y c #002553",
"u c #012A54",
"i c #092B54",
"p c #00265B",
"a c #002C5C",
"s c #03325D",
"d c #0A325C",
"f c #002662",
"g c #002D63",
"h c #002E6B",
"j c #013264",
"k c #003A65",
"l c #02336B",
"z c #09336F",
"x c #013A6C",
"c c #093B6F",
"v c #002F71",
"b c #043472",
"n c #0B3474",
"m c #013974",
"M c #0B3974",
"N c #033579",
"B c #0D357A",
"V c #033B7B",
"C c #0D397C",
"Z c #103577",
"A c #13347C",
"S c #1A337F",
"D c #11397D",
"F c #0F3582",
"G c #003980",
"H c #153482",
"J c #1B3484",
"K c #143980",
"L c #1B3A85",
"P c #1D358A",
"I c #1E3A8A",
"U c #203587",
"Y c #23348B",
"T c #29338F",
"R c #243D8C",
"E c #253493",
"W c #2D3393",
"Q c #233890",
"! c #293896",
"~ c #2D359A",
"^ c #323396",
"/ c #34329A",
"( c #3A329D",
") c #33399B",
"_ c #3B3D9C",
"` c #3D32A1",
"' c #3C3AA1",
"] c #4233A4",
"[ c #453DA6",
"{ c #4334AA",
"} c #4344A3",
/* pixels */
"                                   XX            X              ",
"    ..                X     X.     X                            ",
"    o*       o.       @@    ..         XX . X    oX    . X      ",
" .X   O.     .    .     OO   ... &X  &X  .  X    X   .    o    .",
" X..O.... . oo . . .. ...OOO..@X.. @ .  O.  .o     . .... @  X .",
"   .......    ........OO..++....    . X. ... ... ..     O   X . ",
".O..... .  .. .. ...OOOO OOO. O...  o .  .O...  . .@O ..  ... O.",
"OOO..OO.O...O....O...OO++++O.O.O..O .o.o. o%....X .+.........o.O",
".@+..O+.OOOO.O+OOOOO++++++-+OO.OOO....++OO...O.O+...+....+.+....",
"O.+O++++.OO+OO%+OOO+++++OO=#OOOO+O+.O++++O+oOO+O++++.X+++%+.+.++",
"+++++++.O++++..+OO++#O+++#=+OOO+++O++:=++O@:O++++++.++.+%+O+X+++",
"+++++.+++++++++@O++++=+++#=+++O#==#.OO=++OOO++=+++X++++++++O+++.",
"O++++++$##+++++#++++++=++==-#+===-=O+O+=#+O+++++++++++.+++++++++",
"#+#++++#=#+#++++++++++=++===+#=----++++=+#===,+++;##++++##++++++",
"+$#++++##+++++++@++##==++=+%##=-3-=+=+=+#+===-=++##+###+++$+++$+",
"++#+##########+:=++#+#=+=+=+#+#-3<-==+====#==++##+#=###;##+$+$+$",
"$$##+##########$$######;###$###;--<======##=#=#####;##=#=###$##$",
"$+;#$###=#$##$#$##$##$#=;#$#==-==,-==-=====######;==;;===#=##;=#",
"###$$#$#====##;$$#;#$#========-=-5>--=--;=#$##=#;=#=;==$#===;;;=",
"$$;#;;#;====;;#;=##=;;=;;===;;->--<;-<33>=$;#;#=##=;#$;$;;;;;;;;",
"$;;;;;;=;;;;;;=;==,>>-;;;=>;>;-<33-3--77--;=--;>>;===#;;;;;;#;;;",
";;;>;;;;;;><;;;;;-,<3<>;;>>>>>;-3-<31<33<;;><7983>,>;;$>>;;$;>;;",
";;;>>>>>;>>>>;;;><>11<><>>>>-1<<<<33>1<22<><390y9<;>;;;;;>;,;;>;",
">>;>>;><>13>><-><><<1<33<;>-<<133<37<<<>->>><<7007<>>;>>>;:6>;>>",
">>>>>>1>>1441<><11<><<<11>>><<<377773><<<<<>><18991>2>>>>>>>>>2>",
"<>><>,>11144341<34<<1<<14<>>113337997<4313<><>12483<>2><>>>>>>2>",
"<<11111<>1444831<44>>1<441111344337007999313131<143344116>>>2>1>",
"4444111<4444q844444<11111114344413487779p7388991<14444446>>61222",
"qq88411<1446q8884416<1111441411111344389099999081448888441116111",
"8ee99441114qq44844qw144114441<114448448780ye99y9888788qqq4616166",
"eidye84446164444884464444444111484484648489e9ee909988e8qw6166116",
"eddp9444646416q88q88q6t488qqq66699e4q48884ee9eyyyy9888eqr4666166",
"yyye784444qq8889qqq86qq8q4qqwqqeepp078e999eee99yyy999e9ee844q464",
"889q8eq9rq888q8eqqqqqqqqqq488qqyypf0e9eee9qqqeeeyreeee9eee846q66",
"qq8qqqeyyt8qqeeeeqqqqqqeqq8qq8eepfffp9yyeer88qeqeer9eqeereq8qqqq",
"eqeeqq9yuyeqqeqeeeqrqqe8qqe8erye0yfy90ppyr8qr8qeeeeeee8terrrqqqq",
"eeeyyyepyy9eeeeeeeere8eeqereeeyy9rpeeffpyetrqqqeeeeqqreuirrurqqq",
"yyryayyyyypyyy9yyrerrerereeeerppyypyypgueeeerqeeereqeyuuuuuyeeee",
"pyyyupyyypppsaaayreyyuyyyyreypasjhppuppyyyreereeieeereyyuuueieee",
"pyyeupayupgajjsspyyyyuyyppyyaajgffhgffpyyyuyreyryrreeeyrruuyyrrr",
"pyrryapyipaasjjspyyyppaaffuphjgjgfxlhayuaaduyyuruyrrryuuruuuyryy",
"auuuuapppaasassgapppahhhhfpfhhjkjhxlhfppajauyuuuuuuuuuuuruuuuuuu",
"pauuupaaagsaaaaggagghhghhhvhaahaglxlhhhgjsguuuuuiuuudiuuuuuuuapa",
"uudpuauaagaapauuhznhbhhhhbNhfgghllxmljjhjhgaauuaauuauuuuuuuddaaa",
"aadaauaaajaaaaaahbbhhhNNmmxlhgghhlmxxljllhpjgaaaaaauauaasuaaddja",
"aaaasaaagajgjjjllvbbvblbblklhghlllxxlljjjhhhjgjgsaassausaaaaajgj",
"saagasjaggjjkkkxmNNmbbvhhlljjajlllxkxjkhhljljjjajaasaaaasaassagj",
"asasggjjjjjjkxxbNlNNmbblhllljjjljlkxxjllcjljjljsaaasjasjajjjjhjg",
"ssgjjjjljjjjjlxNbgbGVNbjjlhglljlllkllxlhllllxjggjjjjjjjjjjjjlllh",
"jgjjjjjjjjljllblllhVVNblljjjllllMbljlxmllllllllzjlllllllllllllll",
"ljjjjjzhzlllbbbbvvvNVVMblllllzllkbbllblbbblbzlhhlllblMMbcbbbbbbz",
"zjzzzzhzzzzcnbbbnvFGNNnnnbzznlnzbnMBnnnnnnlnzzzzMnnnnMbMMbnBBbnz",
"zzZzzZzzzznnMnBBBBBBHvvABnBnnnnnBCCCZBBBnnnnnAnzZBBnBBBBCCFFBCBM",
"zZzzzZZzZnnBBBBBSvBFBBSSBBBBBBBBBZDDKZBBBBZBnnAZDDBBDCDCBBFFHFAB",
"ZZZZZZZZAABAADBAAAAAHASvABAASAAABHKKAHAAAAAAAAAHHHHHHKHFHHFFHHHH",
"SSASSSASSAASSASHHHHSHHSSSSHHHHHPIHLLLHJHJHSSHHJJLHHPPLHPHPPPHPLL",
"SSSSSSSSSSJSSJJJSSSSSJJJJJJJJLPIRPJPJJPJJJPJJPJJPPPPPPPPPPPPEPII",
"USUSUUUSUUUUUUUUYSTUUYJJUUUUYUUYYPYYYPYYYYYYPYYYQQPQEPEEEEEEEEQQ",
"TTUTTYSUYYYYYUTTTYYYYTYTYYTYYYYTTTYYTYYYYYYEEYEEEE!!EEE~E~EEWE!Q",
"TTTTTTTTTTTTTTTTTTTTTTTTTTTEWWTWTEWWWT^WEWWWW^WWE~~~~~~~~~~~~~!!",
"T^T^T^^^^W^^WWWW^T^^T^^WWWWW^W^^WWW^^_^^^^^^/~~/~/~~~~`~')_))~^^",
"^^^^^^^^^^^^^///^(^^^^^(///((^_^(/((^/(^/`(////``/``````'}'(((((",
"((((((((((((((((((((((((((((((((((((((((````````````````'[{`````",
"(]`((](]((``]`````````````]`]]]]]]]]]]]]{{{``{{``{``{{`{`{{{{`{`"
};
