/* XPM */
static char *_ae1f495b9cb4c7ac3db9ac38a9f15baosWDBNwc6F3lUhgC[] = {
/* columns rows colors chars-per-pixel */
"64 64 243 2 ",
"   c #000104",
".  c #01040B",
"X  c #090A0D",
"o  c #000611",
"O  c #010914",
"+  c #02071B",
"@  c #010D1C",
"#  c #12161B",
"$  c #21211F",
"%  c #000E21",
"&  c #000C2C",
"*  c #011124",
"=  c #01142B",
"-  c #09172B",
";  c #000F31",
":  c #001633",
">  c #011935",
",  c #041938",
"<  c #011C3C",
"1  c #05213F",
"2  c #343630",
"3  c #6A1017",
"4  c #751C24",
"5  c #593232",
"6  c #6E2A2F",
"7  c #3B5B0A",
"8  c #385413",
"9  c #3F6008",
"0  c #344D31",
"q  c #405E0F",
"w  c #44680D",
"e  c #4C750D",
"r  c #527C0E",
"t  c #496B14",
"y  c #4D7411",
"u  c #527C11",
"i  c #527C1E",
"p  c #47562E",
"a  c #4C6F33",
"s  c #59763B",
"d  c #001D43",
"f  c #011E4A",
"g  c #011F51",
"h  c #012145",
"j  c #01234C",
"k  c #03294B",
"l  c #17394B",
"z  c #002552",
"x  c #012A54",
"c  c #042857",
"v  c #002C5C",
"b  c #07325A",
"n  c #153A58",
"m  c #002E62",
"M  c #002568",
"N  c #002C6C",
"B  c #013264",
"V  c #04326B",
"C  c #08356B",
"Z  c #143F65",
"A  c #052E75",
"S  c #0C3373",
"D  c #083576",
"F  c #143679",
"G  c #14347B",
"H  c #253B7E",
"J  c #1B4657",
"K  c #2C574D",
"L  c #3A664E",
"P  c #184266",
"I  c #2F4B70",
"U  c #4B554B",
"Y  c #565855",
"T  c #745151",
"R  c #487349",
"E  c #577348",
"W  c #4C675A",
"Q  c #566B57",
"!  c #637252",
"~  c #455175",
"^  c #4F6769",
"/  c #6E786A",
"(  c #70746E",
")  c #980F1E",
"_  c #891C27",
"`  c #981B28",
"'  c #97212D",
"]  c #872B34",
"[  c #892A33",
"{  c #962C37",
"}  c #98323D",
"|  c #A92836",
" . c #B22B3A",
".. c #C9273A",
"X. c #D6263B",
"o. c #983A43",
"O. c #A93844",
"+. c #B83745",
"@. c #C73949",
"#. c #D53548",
"$. c #D63649",
"%. c #E6364B",
"&. c #964A51",
"*. c #B34B56",
"=. c #B55C65",
"-. c #907474",
";. c #B46D73",
":. c #C5414F",
">. c #C94A58",
",. c #D74657",
"<. c #E5475A",
"1. c #CA5663",
"2. c #D75565",
"3. c #E75667",
"4. c #EC5768",
"5. c #CF6F79",
"6. c #D96774",
"7. c #E86776",
"8. c #EE6777",
"9. c #55820D",
"0. c #59880D",
"q. c #568212",
"w. c #598612",
"e. c #5C8C11",
"r. c #5B831E",
"t. c #5E9011",
"y. c #63990D",
"u. c #639512",
"i. c #669B12",
"p. c #689E13",
"a. c #689A1C",
"s. c #6AA40C",
"d. c #73AE0D",
"f. c #75B30D",
"g. c #79B70C",
"h. c #6CA413",
"j. c #6FA914",
"k. c #6BA41A",
"l. c #72AC14",
"z. c #72AB1A",
"x. c #75B213",
"c. c #79B714",
"v. c #578B29",
"b. c #5B8938",
"n. c #689B25",
"m. c #638C34",
"M. c #6B9233",
"N. c #77A430",
"B. c #738D52",
"V. c #7DA343",
"C. c #71876C",
"Z. c #7C9779",
"A. c #87BA34",
"S. c #83A74D",
"D. c #828B77",
"F. c #8A9879",
"G. c #93AE6F",
"H. c #A3BE7F",
"J. c #A7C678",
"K. c #182E8D",
"L. c #153685",
"P. c #1C3483",
"I. c #1C338B",
"U. c #23348B",
"Y. c #26388C",
"T. c #262E94",
"R. c #253493",
"E. c #2C3494",
"W. c #2B3698",
"Q. c #333397",
"!. c #34339D",
"~. c #3A339C",
"^. c #363999",
"/. c #362BA4",
"(. c #3B2EA5",
"). c #3C2AAB",
"_. c #3C32A2",
"`. c #3C3AA1",
"'. c #41339F",
"]. c #412FA9",
"[. c #4132A4",
"{. c #4335A9",
"}. c #444694",
"|. c #A57E80",
" X c #C87C84",
".X c #F37584",
"XX c #898C87",
"oX c #9A8784",
"OX c #8A9488",
"+X c #959895",
"@X c #9C9E9D",
"#X c #AA9494",
"$X c #90A78F",
"%X c #A9BA93",
"&X c #9E9FA0",
"*X c #9EA0A0",
"=X c #9DA9A2",
"-X c #9CB1A5",
";X c #A4A6A5",
":X c #A6AAA7",
">X c #ACB3AC",
",X c #B5B8B7",
"<X c #CA8D93",
"1X c #E7828E",
"2X c #E4919A",
"3X c #ED9AA4",
"4X c #CEA9AB",
"5X c #EBB0B6",
"6X c #B3C993",
"7X c #BFD3A3",
"8X c #BCC3BA",
"9X c #C7D2B7",
"0X c #F8BCC3",
"qX c #BEC5C4",
"wX c #C3C4C4",
"eX c #C5CCC9",
"rX c #CACBC9",
"tX c #CCD1CD",
"yX c #D4DACD",
"uX c #CBD7D6",
"iX c #D5D9D8",
"pX c #DAE5CF",
"aX c #E3ECD6",
"sX c #D8E5E5",
"dX c #DEECED",
"fX c #DEF4F2",
"gX c #E7E9E7",
"hX c #E1EEEE",
"jX c #E9F1ED",
"kX c #E3EFF0",
"lX c #EDEEF2",
"zX c #E5F2F3",
"xX c #EBF4F5",
"cX c #EEF5F6",
"vX c #EBF7F9",
"bX c #EDFCFC",
"nX c #F1F6F6",
"mX c #F2F6F6",
"MX c #F7F9F7",
"NX c #F2F7F8",
"BX c #F5FAFB",
"VX c #FCFDFD",
"CX c #FFFFFF",
/* pixels */
"                                                                      X X                         X                             ",
"          .                                 X 2 ( XX@X>X>X;X+X( Y $                                                             ",
"        . # .             X .     . X   X Y rXVXVXVXVXVXVXVXVXVXVXjX,X( 2     X .   .   . X       X .     .       .           . ",
"  X . .   . . . .     .   . .         2 9XVXVXBXmXcXmXmXnXcXmXnXmXVXVXVXjXoX#   X .     . .       . .     .   . .   X .         ",
". . . . . . . . .   .   X . . . . $ XXBXVXnXnXnXnXmXNXNXvXcXBXBXMXVXVXNXMXVXgXY         . X   .     . .   .   . .   .   . .   . ",
"  . . . . . . . . .     .   .   Y mXVXBXcXNXmXxXcXcXxXlXBXVXBXBXVXNXNXnXBXmXVXVX(   . . . .       X O . .   . . . . . . X . . . ",
". o . . . . . . . . . . . . .   :XVXxXcXnXcXxXxXxXzXNXlXuXtX4XoXbXBXcXnXNXVXmXBXVXY   O . .   . .   . X . .   . .     . . . . . ",
". o o . . o o . . . . . . X . 2 MXNXcXnXxXcXBXNXxXvXBXZ.]  X0X XoXuXVXNXmXNXNXnXVXiX# X o . . . . . . . . . . . . . X . . . . o ",
"o X O o X O O . . o o O o o   :XVXcXNXxXxXzX#X,XdX,X&.| @.6. X.X@.{ +XzXBXcXNXNXNXVXU   X o o o o X o X . . o . . o . X o . . o ",
"o o o o o O o o o o o O o . $ gXNXcXxXvXbX#X| | 6  .X.%.3.<.+._ { ' ` &.sXBXNXNXNXVXY   O o o o o o o o o X o X @ # o O o o X o ",
"O O O O o O o o o o o o o   Y VXvXvXvXuX-.@.%.` ) %.<.O.| +.` +.<.@.+.+.oXBXMXNXmXVXOX. o o O O O O O X O o o @ @ O o o o o O O ",
"O O O O o o o @ + O + O O   ( VXzXvXsX&.$.$...) $.4.@.@.<.$.' _ +.3.7.=.<XjXVXvXmXVX@X  @ + + o O O O O O o o o o o O o O O o O ",
"o O O O O O O @ @ @ O O @   ( VXxXlXbX#X..#.#.O.O.,.@.2.+._ 3 _ 4 *.5X5X7.<XsXbXlXVX@X. @ + + O O O O O O o o O @ O O O X O o O ",
"O @ @ O O O O % * @ O @ @   XXVXkXkXvXuX{ %.@.O.4 _ +.' ' _ 3 6 } &. X5Xo.#.*.fXBXVX@Xo % - O + @ % @ @ @ O O O O @ O O @ @ O O ",
"@ O @ O O O + @ @ + O O +   +XVXkXxXxXVX-.` { $.] '  .3 _ _ 4 2X=.2X2XO._ @.X.&.sXVX@X. * - @ O O @ + @ @ @ @ O @ O O @ O O @ O ",
"O @ O @ O @ @ @ + @ @ @ @ . @XVXzXcXcXVX#X4 8.2.+.<.@.' 3 { 2X;.=.3X.X@.@...#.X.} ,X;X. @ @ @ + @ @ @ @ O @ @ % @ @ O @ @ @ @ @ ",
"@ @ @ @ @ @ @ @ @ @ @ @ % . >XBXzXBXvXbX( @.8.>.{ 3.7.2X4X=.*.o.6..X@.+.,.,. .#.o.:X+Xo % @ @ @ @ @ @ * % @ % % % @ @ @ @ @ @ @ ",
"@ @ * @ @ @ @ @ @ @ % @ @ @ wXBXNXNXzXuX&.2.7.2._ *..X2X X1.=.o.1.+.+.,.<.%.) -.zXVX&X. * @ % @ @ % @ * * % % @ @ % % @ % % % % ",
"@ @ @ @ @ @ @ * % % % @ % O wXVXNXzXdXzX:Xo.2X1X2X X X5.6. X8.+.} >.,.<.<...T bXcXVX@X. % @ @ @ * % @ % % % % % % * * * * * * * ",
"@ * @ * * * * @ % % * * * @ wXVXxXhXzXsX4X;.<X<X5X0X2X.X.X8.8.@.O.8.3.4.,.6 uXbXzXVX;X. * @ % % % @ % * % % % % % % % * % * * * ",
"% * * * * * * @ * * = & * @ qXBXzXdXzXiX4X0X5.&.6 *.2.@.o.o.} 4 *.2.,.| 4 >XbXzXxXVX@Xo & = = & = % @ * * @ % * * * @ * % * * * ",
"* * * * = * * = * % * : = % qXBXzXhXzXzX;.7.2.:.+.[ O.O.1.1.1.>.+.| { o.+.#XfXvXlXVX@X+ ; d d d < & - - * * * = = = = * * * * * ",
"* * * = * = = = = = = = = @ wXBXzXdXzXbX&.) X.$.2.7.7.o.6..X7.8.7.3.3.@.} T sXnXkXVX@X+ d f g z f ; = = * * * * * = = - * * = * ",
"= = = = = = = - = > > : = * wXBXzXzXdXzX=XT ] ,.8.6..Xo.+..X7.8.3.>.[ ( uXvXkXxXxXVX;X+ , ; d z g d : & = * = = * * - - = = = = ",
"= = = = = = > > = > < < > * wXBXhXzXdXdXvXvXqX( } >.6.6 5 >.2.3.2.` / bXvXfXzXxXlXVX@X+ : = : d f f , = = = = = = = = - = = - = ",
"= = = > = = = = > > , d < = wXBXzXzXzXhXdXdXfXfXY | T U 0 2 U 5 -.:XsXdXdXzXzXxXcXVX;X+ : = > , d d : : > , > = - - = = - > - > ",
"> : > > > > > : : > , d d : wXBXzXzXzXdXdXdXsXvX-Xp $XQ C.C.Z.C.>XbXdXdXkXzXzXxXcXVX&X% < > > : , > , , > < , > > - > > > > > > ",
"< < < < > > > > > , < < h > wXVXxXzXzXzXdXdXdXzXOXZ.Z.C.$XqXQ $XU ,XvXdXkXkXxXcXlXVX&X& f f f , > > < < < < < < < - - > > - > > ",
"d h d d < , > > , , < h h > wXVXxXxXzXzXkXdXfXeXQ Q =X$XZ.dX:XC.C.,XvXhXzXxXxXxXxXVX@X; g f f d , : d d d d < < < < < - > > < > ",
"d j f f d d < > > > < h h - eXVXxXxXvXzXzXdXbX=XU >XsXZ.XXfXuX( C.qXzXhXzXxXxXcXcXVX*X; z f z f d d d d d d h h 1 < < > 1 > < < ",
"j c b z f < < < < < < < 1 - eXVXcXNXxXxXzXzXvX,XeXbXtXC.OXsXiXsX/ -XvXkXzXxXxXNXxXVX;X; j f g g f g f d d f h h k < < 1 > < < < ",
"z b b c f d < < < 1 < < < = eXVXcXnXNXxXxXzXhXhXzXvX,XC.W OXkXhXuX8XkXzXxXxXxXNXmXVX@X; z z z g z g f d d h j h h 1 1 k 1 1 < < ",
"j z z j d d , d h , h d d = wXVXNXNXNXNXxXxXzXzXhXBX-X! p uXxXhXvXdXsXNXzXxXNXNXcXVX;X; z f f z z z f f j f f j f d < < h < 1 < ",
"j f j d d j d f j h d d j : wXVXNXBXNXNXvXcXcXxXzXBX-XU @XBXkXzXzXxXxXxXNXNXNXNXmXVX@X= j j j j z j j j j j j j j h d < h 1 1 h ",
"d h d h d h z z k k d h d , rXVXVXNXNXNXNXNXcXcXxXNX$Xa ,XbXzXxXxXxXxXxXvXNXNXNXmXVX*X= j d h j j j j j j d j k j j h h 1 h h h ",
"j h j j h d f z c z h k j < rXVXNXVXBXBXNXNXNXNXNXkXF.U eXVXzXxXNXxXNXNXnXNXNXBXmXVX&X& k d h j j j j j j j h k x k k j h h h h ",
"j j j z z z f z c z j f z , rXVXMXNXVXMXNXNXNXNXBXcXF.E iX,XNXNXnXnXnXnXnXnXBXBXNXVX;X= k h h j j j j h h k z x x k x k j h j h ",
"c j j c M c z z z z z c c < rXVXVXVXVXBXBXVXVXNXNX,XB.! ( >XVXBXBXNXNXNXBXBXBXBXBXVX;X; k h j j j j j h j z x x b x x z j k h j ",
"c z j z c z v z z v v c B h rXVXBXVXVXBXVXNXVXNXVX+XE p / VXNXBXBXnXnXBXNXNXVXBXNXVX;X> j k k j c k j j j j z z k x x z c k j j ",
"v c j z z v c z z c v M v k rXVXVXVXVXVXNXVXVXBXVXgXB.p iXVXNXBXBXBXVXNXVXVXNXVXNXVX;X, x j z k x k j j k j z j k x z z x j z k ",
"z z j z x v v z c v v v B k rXVXVXVXVXVXVXBXVXNXVXtXE D.VXMXBXBXVXNXBXVXVXBXVXNXMXVX;X< c z z x z z z k k k x z x x x x k z z z ",
"v v z c x v v c c v v v v j rXVXVXVXVXMXVXVXVXVXVXrXs OXVXMXVXBXBXVXNXVXBXVXVXVXMXVX;X< v z x z b x z x x c x x z k z x x x x x ",
"v v c c c c v v m m v v v k rXVXMXVXVXVXVXVXVXMXVXrXa XXVXVXBXMXBXVXVXVXMXVXVXMXMXVX;Xd v z z l n x n v b v z x x x x v z v v v ",
"z c v v v v c c v v B v v k rXVXMXVXVXVXVXVXVXVXVX9XE D.VXMXVXVXVXBXVXVXVXMXVXVXBXVX;Xd v j I J v n b x x x b x x x x b b v v v ",
"v v b v v x v v v B v v v k rXVXMXVXVXVXVXVXMXVXVX|.0 OXVXVXVXVXVXnXMXVXVXVXVXgXMXVX;Xj M P I b n b x v x x v x v v v v B b B v ",
"v v v v v v v v m v m m B k rXVXVXVXVXVXVXMXmXVXVX,X0 D.VXMXMXMXVXjXVXMXgXVXgXtXVXVX;Xl Z L n n v v v v b P I v v b v v b B m m ",
"v v v B v B m m B B v B C b rXVXVXMXgXVXVXMXiXmXVXrXa D.VX9XaXaXgXgXmXsXgXVXrXlXVXVX;Xa L K K J m B b J n b B v v v v B B m m V ",
"v v v v B v m B B B B B P k rXVXVXgXgXaXgXpX%XrXVXrXs C.9XG.9XpXiXgX,XrXgXVXtXVXBXVX:Xp t 0 J v v ^ P k v B v v v B v B B m m m ",
"B v B B B m B B B N M N C l tXVXVXyXmXpXaX9X6XB.gXrXa ! G.J.%XpX%XiX:XF.VXgX8XVXMXpXF.7 r.0 M l i a V B B B B B B B B B V V V B ",
"B B B B C m B B B K v.v.v.8 yXjXpXeXMXH.9XG.6X7 m.F.p p M.G.9XG.6X,X6Xm.pX9XG.gX9X6X/ e r.l W u.0 M A N V B V V V V V V V V D V ",
"V m B B B B C M K g.x.h.s.7 yX9X9X9XlXN.y.S.6Xe w e p 8 i s H.N.J.S.M.z.N.V.n.G.N.S.E q.t R A.0 N J K L R R L K P D D D V D D V ",
"C C C C C C S N J k.f.u.z.q iX6XG.G.%Xi.r d.A.y.e e a p 7 w.N.h.9.0.s.l.p.h.j.y.y.s.w q.w.u.t v.k.l.f.f.x.x.c.l.k.v.K D D D D V ",
"A S S S V S S S A Z a i h.t S.a.n.u.l.e.p.h.i.i.y.e t 2 7 y.j.t.e p.u.l.x.l.l.l.h.x.u u u.w p.c.l.x.l.l.z.l.l.l.z.c.k.P L.D D G ",
"S S S S S S S S G A L.n u.r 9.y l.l.h.w.l.h.l.l.l.p.y.i w.l.l.p.s.x.0.p.x.l.l.l.l.c.u e.w.w.j.l.l.h.l.l.z.l.l.x.f.k.L L.D L.L.G ",
"F F G G F G G G G G G A v.0.t e.x.x.y.e.l.l.l.l.j.l.x.h.u.l.l.l.l.j.r p.x.u.j.l.l.x.u w.t p.l.z.x.x.x.h.f.x.j.n.L I L.L.L.L.L.G ",
"F G G G G G G G G G A K.L u.w u.l.z.0.p.l.p.l.l.h.u.x.u u.l.l.x.u.u.e p.x.q.j.j.w.x.e 8 r g.x.l.l.k.n.b.L L I L.L.L.I.I.L.L.L.L.",
"P.G G H G P.H G G K.I L v.u.0.u.p.t.r j.u u.l.l.j.9.h.q.e.l.j.x.r p.w p.x.u j.q.u.j.8 8 b.R W K I H I.I.K.I.K.I.L.I.K.I.I.I.Y.Y.",
"U.P.P.P.U.P.P.K.H R j.f.z.j.p.r y.w 9.t.w.l.i.i.j.q.q.q.q.x.x.h.r l.q i.c.r u u c.e 8 P.T.K.K.T.I.R.I.R.R.Y.R.R.R.R.R.R.R.R.Y.Y.",
"U.T.H U.U.U.U.H v.f.d.j.l.x.u.9.p.q r e.h.u.e.l.e.u.t w t.x.j.w.e.h.e q.c.y 7 z.p.e.k.R I Y.T.T.R.R.W.R.R.R.W.W.R.W.W.R.W.R.R.Y.",
"U.E.E.U.E.E.T.Q A.s.d.j.l.d.h.p.h.w w.e.l.w.u l.h.e.y 8 p.h.q.q.i.i.e.y t.y e.l.h.l.l.f.z.n.m.I W.W.W.W.W.W.W.W.E.W.W.W.W.W.W.W.",
"Q.T.Q.E.E.E.E.I v.f.f.f.x.l.l.z.j.i.p.p.c.y.y.d.d.p.y.w f.s.0.y.d.i.j.u.e.z.l.l.z.z.z.l.l.g.n.I W.!.W.^.W._.W.W.W.`.`.^.^.W.!.!.",
"Q.Q.Q.Q.Q.Q.Q.Q.Q.~ E m.a.l.d.f.d.f.f.l.n.E W W W W ^ U W Q W ~ Q n.l.g.g.x.f.f.f.g.f.j.m.Q ~./.^._._.!._.!._./.`.}.`.^.`.W.!.!.",
"~.~.Q.Q.~.~.~.~.~._./.~.~.~ ~ Q W Q ^ ~ Q./././././././.(.(._.(./.^.~ Q E m.m.m.b.E Q }._.(._._._._._._._.(.(.).`.{.{.[._._._._.",
"'.'.'.'.[.~._._.~._.[.[.[.(.).).).).).(.[.'.'.~.[.~.(._.~.[.[.[.[.[.{.).[.[._.[.].{.].).[.{.{._.[.{.{._.{.{.{.{.{.{.{.{.[.{.[.[."
};
