/* XPM */
static char *_e53b00de13f4ba994d374d2e1c26404fk4MgVbLXwmbuysq[] = {
/* columns rows colors chars-per-pixel */
"64 64 238 2 ",
"   c #010103",
".  c #01040B",
"X  c #0A0809",
"o  c #130C09",
"O  c #1E100B",
"+  c #000611",
"@  c #010914",
"#  c #080B17",
"$  c #010C1B",
"%  c #06111C",
"&  c #161316",
"*  c #2A221A",
"=  c #302419",
"-  c #000D24",
";  c #021124",
":  c #03142A",
">  c #151C28",
",  c #021835",
"<  c #0D2C37",
"1  c #0E3333",
"2  c #2F2E28",
"3  c #353736",
"4  c #423A2D",
"5  c #484337",
"6  c #4F4B38",
"7  c #564F3A",
"8  c #031B43",
"9  c #052447",
"0  c #01234C",
"q  c #142B48",
"w  c #002654",
"e  c #012955",
"r  c #002C5C",
"t  c #0A2B5A",
"y  c #102E50",
"u  c #0A365B",
"i  c #323656",
"p  c #002E62",
"a  c #002E68",
"s  c #132E62",
"d  c #013264",
"f  c #05326C",
"g  c #09376B",
"h  c #12326C",
"j  c #043475",
"k  c #0B3373",
"l  c #0C347C",
"z  c #143476",
"x  c #14347B",
"c  c #203375",
"v  c #35387F",
"b  c #4C3B6B",
"n  c #3B4B56",
"m  c #08456F",
"M  c #0E456E",
"N  c #13476C",
"B  c #034571",
"V  c #0C4770",
"C  c #074871",
"Z  c #0F4B72",
"A  c #114C72",
"S  c #1A4E71",
"D  c #0E5176",
"F  c #04577E",
"G  c #0D5579",
"H  c #0D5A7D",
"J  c #105176",
"K  c #1B5173",
"L  c #105579",
"P  c #125C7D",
"I  c #295875",
"U  c #385172",
"Y  c #0A607F",
"T  c #13607F",
"R  c #2A677E",
"E  c #565543",
"W  c #53564A",
"Q  c #645941",
"!  c #566658",
"~  c #6E6E53",
"^  c #514B6B",
"/  c #70567F",
"(  c #457179",
")  c #58787B",
"_  c #6D7A64",
"`  c #737B60",
"'  c #637D7D",
"]  c #6C8670",
"[  c #758C75",
"{  c #79967B",
"}  c #879579",
"|  c #1E2F8D",
" . c #0C3581",
".. c #0E3880",
"X. c #133484",
"o. c #1C3484",
"O. c #1B3A86",
"+. c #1C348B",
"@. c #23348B",
"#. c #29338E",
"$. c #253B8A",
"%. c #373589",
"&. c #2C2F91",
"*. c #253493",
"=. c #2C3394",
"-. c #263893",
";. c #2C359A",
":. c #323396",
">. c #34339B",
",. c #3A329D",
"<. c #343A9C",
"1. c #3D32A2",
"2. c #3A38A1",
"3. c #49378A",
"4. c #432F98",
"5. c #4B339A",
"6. c #5C3597",
"7. c #663E8F",
"8. c #4233A4",
"9. c #453DA6",
"0. c #4334AA",
"q. c #035D82",
"w. c #0D5E81",
"e. c #125F80",
"r. c #3F5581",
"t. c #046484",
"y. c #0D6485",
"u. c #0D6887",
"i. c #066989",
"p. c #0D6B8A",
"a. c #136583",
"s. c #156B86",
"d. c #186A85",
"f. c #126D8A",
"g. c #0C728E",
"h. c #15738D",
"j. c #19758D",
"k. c #167A8E",
"l. c #1A7B8F",
"z. c #097892",
"x. c #0C7D95",
"c. c #147591",
"v. c #197691",
"b. c #157B93",
"n. c #1A7D93",
"m. c #167E98",
"M. c #246C8A",
"N. c #2A7C8C",
"B. c #3A7C89",
"V. c #267B94",
"C. c #3B7A98",
"Z. c #6A4888",
"A. c #754A8D",
"S. c #775889",
"D. c #774895",
"F. c #6D5396",
"G. c #7A5893",
"H. c #4E6D92",
"J. c #477597",
"K. c #587598",
"L. c #75618E",
"P. c #696A98",
"I. c #776596",
"U. c #687299",
"Y. c #707499",
"T. c #4344A3",
"R. c #865E96",
"E. c #0C8499",
"W. c #168193",
"Q. c #1A8395",
"!. c #198996",
"~. c #14839B",
"^. c #1A859B",
"/. c #168A9D",
"(. c #1D8C9D",
"). c #1C939D",
"_. c #1D999F",
"`. c #3F8C8E",
"'. c #278598",
"]. c #228D9D",
"[. c #328598",
"{. c #21929F",
"}. c #29949D",
"|. c #38959C",
" X c #128BA0",
".X c #1C8DA1",
"XX c #1E95A1",
"oX c #1399A4",
"OX c #1D9CA3",
"+X c #2194A1",
"@X c #239BA3",
"#X c #299EA4",
"$X c #379BA1",
"%X c #15A3A6",
"&X c #1DA3A5",
"*X c #1FA8A6",
"=X c #1BA6A9",
"-X c #16A9A8",
";X c #1DABA9",
":X c #24A4A5",
">X c #2AA4A5",
",X c #22ACA7",
"<X c #2CAAA7",
"1X c #24AEA8",
"2X c #2BACA9",
"3X c #37A9A4",
"4X c #26B1A9",
"5X c #2BB3AB",
"6X c #2FB9AE",
"7X c #32B5AB",
"8X c #3AB3AD",
"9X c #35BAAD",
"0X c #38BBAD",
"qX c #2CB9B0",
"wX c #37BEB3",
"eX c #4D8A8C",
"rX c #588989",
"tX c #458C92",
"yX c #49979A",
"uX c #549995",
"iX c #698A83",
"pX c #6F958B",
"aX c #6A9A8B",
"sX c #59A79B",
"dX c #54AC9C",
"fX c #65A799",
"gX c #75A793",
"hX c #63B39D",
"jX c #73B39D",
"kX c #50ADA3",
"lX c #5BBBA5",
"zX c #63B5A0",
"xX c #37C1B1",
"cX c #50C0AD",
"vX c #48C2B2",
"bX c #839887",
"nX c #8BAC91",
"mX c #86B299",
/* pixels */
"                                                                  X X X X                                                       ",
".       . .                 .       o * 2 1 1 1 1 1 1 * X                       X       X       X                               ",
"  . .   X & . . . .       X X   o 7 [ yX].>X7X0X0X0X7XgX[ ] ] _ ~ W 6 5 2 O O o           o = o   . X     .     . X   . .       ",
". X   .   . . . .       . .   7 [ yX]. X(.^.{.<X7X9X7X6X0XxX0XvXkXvXvXcXdXdX{ [ ~ 5 O   4 { hX{ ~ *     . .   . .   X .     . X ",
"  . . . . . . . . .   . X o ` uXh.q.i.u.j.).2X7X9X9X9X9X7X7X6X7X7X7X7X7XxXxX4XxXcXcXfX] hX5X%X*XkXsX_ *   . . . +   X . . . .   ",
". . . . . . . . .     .   4 yXq.H y.f.Q.>X9X0X7X7X9X9X0X0XwX0X7X7X5X6X5X4X7X9X6X7X5X6XxX5X,X_.!.E.E.'.] Q       . .     . . . . ",
". . . . . . . . . . . .   7 C.F h.m.@X7XwX7X0XwX0X7X9X7X5X<X:XOX&XOX_.&X%X*X7X7X7X0X0X0XxX0X7X,XW.T F t.tX` o . . . . . . . . . ",
". . + . + + + . . . . . . } (.b.(.>X9X5X2X9X7X0X0XwX7XOXOXOXOXOX&X&X&X&X%X%X-X-X&X&X*X1X7X7X7XxX7X1XW.s.F tX7 . . . . . . . . + ",
"@ @ @ . . @ @ + . @ + . 7 sX~..X>X0X>Xm.@X9X7X0X7X2XOXOXOXOX&X_.OX&X&X&X<XhXjXuX*X*X*X*X*X*X,X7X9X0X7X:Xg.eX2 . X @ . @ . . + . ",
". . @ + @ @ @ . . @ X 2 pX~.^.<X0X>Xm.~.5X0X7X>X@XXXOXOXOX_.&X&X&X&X%X3X[ ( I N T ,X*X*X*X*X&X&X1X7X9X0X,XhXQ . % % + + @ . # @ ",
"@ @ @ @ @ + + + @ + # [ .X^.2X0X9X2X2X9X7X>XXXXXOXOXOXOX&X&X_._.&X&X%X3XI m T k.T ).,X,X*X*X*X*X&X&X2X7X0X5XsXE . $ @ + X @ @ @ ",
"@ @ @ @ + @ + $ $ . ~ $X~.2X0X0X7X0X9X>XXX(.XXXXXXOXOX&X_.h.k.&X&X*X*X,X!.W.,X}.T !.1X,X,X,X*X*X&X&X&X1X7X9XqXsX7 . @ @ @ @ . @ ",
"@ @ @ @ @ @ $ - + 2 uXx.<X0X9X2X7X:X.X X}.|.#XXXOXOX!.h.V T *X%X&X*X*X*X,X_.!.Q.T xX4X,X,X,X,X,X&X&X&X&X:X7X0XqXjX4 + @ @ @ @ @ ",
"$ $ $ @ $ @ . & 4 bX'.{.0X9X#X.X~.}.yXfXfX|.l.).OXn.Z M P *X&X*X*X&X*X,X,X1X,X*X,X4X4X4X,X,X,X,X*X*X&X&XOX=X7X0X5XnX* + @ @ @ % ",
"@ $ $ @ + # Q iXyX].~.7X9X#X~.(.fXmXyXN.P C m T OX).Z J _.*X&X).k._.,X,X,X1X1X4X4X4X4X4X4X,X,X,X1X*X%X&X&XOX:X9X5X8X_ + $ @ @ % ",
"$ @ $ @ 5 ] sX2XXXm.#XwX>Xm.}.mXsXj.G C A A Z M n.&XP L s.T L M W.*X*X,X1X1X4X4X4X4X4X4X4X,X4X!.!.&X,X%XoXOXOX:X9XqXzX3 @ % @ % ",
"$ $ + E jX5XqX2Xm..X8X2X.X'.nXyXq.k A A Z Z Z M P &Xh.M M M M W.,X*X,X,X,X4X4X4X4X4X4X4X4X,X,X,XD `.nXgXzX&XoXOX2X9X2X) # $ $ - ",
"$ $ > bX2X8X0X^.c.+X9X{. XgXyXq.A Z Z Z Z Z Z Z D OXQ.M Z Z W.;X*X*X,X,X,X,X4X4X4X<X4X4X4X,X,X,Xz.gXI N ' gXkXoX@X9X5XsX3 @ ; $ ",
"; @ 5 sX5X0X#Xf.m.>X>Xx.yXmXg.A Z Z Z Z Z M Z Z Z !.OXZ A P &X&X*X*X,X,X,X,X1X4X4X4X4X4X1X,X1X,X<XiXm V B V [ fXoX<X7X2X! $ ; ; ",
"; @ _ 2X9X5Xb.p..X<X.Xm.fX[.G V Z Z Z Z h.k.P Z M W.&XL M P &X&X*X*X,X,X,X4X,X1X4X4X,X,X1X,XW.E.lX) B A A C B ) sXOX9X2XJ.; ; : ",
"- 3 gX2X0X+Xu.c.].{.m..XfX'.Z Z Z Z M j.@X@XOX(.a.Q._.D Z T *X&X&X*X*X,X,X,X,X1X4X4X,X,X,X1X,XY aXI C Z Z Z A B ) 3X1X4XyX3 $ : ",
"$ W $X X{.b.y.m..Xm. X'.fXv.Z A Z Z s.@X{.).XXOXW.OXk.M Z H _.;X*X*X*X*X,X,X,X,X,X,X,X,X,X,X,X*XuXI m Z Z Z Z Z V rX<X9X5X( ; : ",
"- ' .Xm.m.f.u.^..Xm. X].sXf.M A M a.+X{.+X+X@X).k.&XT M Z M Z h.).*X*X*X,X,X,X,X,X,X,X,X,X*X*X;XuXK W.T Z M Z J C I |.6X0X>X1 : ",
"> iXm..Xm.y.f. Xm.^.m.[.sXy.M Z A (.+X{.+XXXOXn.!._.Z L s.s.s.a.T !.*X*X*X,X,X,X,X,X,X,X*X*X*X%XdXI %X&X!.P M A A A '.7X0X7Xu - ",
", N.~.^.m.w.c.^.m.^. X'.yXy.V A j.+X+X+X+X@X(.h.&Xj.M Q.=X&X=X;X;X-X&X*X*X*X*X*X*X*X*X*X*X&X&X%X3XR W.&X&X&Xf.Z A Z h.2X9X>Xy ; ",
", Y u.f.u.w.c.^.^.^.m..X].m.J V h.+X{.].!.l.Q.).OXJ P &XOX&XOX&X&X*X&X&X&X*X*X*X*X*X*X*X*X&X&X&X;X'.a.&XOXOXOXk.V V j.>X+X].< : ",
", H y.y.y.y.m.^.^.m..Xm.^..X^.e.Z d.h.Q.(.{.@X(.a.M W.&XOXOX&XOX&X&X&X&X*X&X&X*X&X*X&X&X&X&X&X&X&X&Xs.!.OXOXXXOXh.M Q.@X{.Q., , ",
"8 H u.y.y.w.p.m.^.m..X^.].Q.^..XQ.^.{.{.Q.h.P M M P OXOXOXOXOX&X&X&X&X&X%X&X&X&X&X&X&X&X&X%X&X&X&X&XOXh.(.OXOX:XQ.P ).+X).Q.9 , ",
"9 D D w.w.w.y.f.^.m..Xm.^.].v.d.s.d.P A Z M M A M k.&XOXOX@XOX&X_.&X&X&X&X&X&X_.&X&X%X&X&X&XOX&X&X!.H W.Q.Q.!.(.s.h.(.+X(.(.N : ",
"9 F Z A Z w.u.w.f..X^.m.^..X.Xe.M Z M V Z P h.(.a.).OXoXoXoX&X).!.&X_.&X&X&X&X&X&X&X&X&X&XOX&XOX_.h.W.s.k.k.s.s.v.a.].+XQ.^.R , ",
"0 N.i.J Z H u.y.w.c. Xm.^..X.X.XJ Z P j.(.+X+X{.{.XX+XyXdXkXQ.Y _.&X_.&X&X%X&X&X&XOXOX&XOXOXOXOXOXOX&X&XP D P a.Z a.+X].c.f.I , ",
"0 iX|.i.H D y.y.y.y.v..Xm.].m.].a.M Q.+X{.+X+X(.b.#XsXuXtXzXbXN.%XOX%X_._._.&X_.OX&XOXOX&XOXOXOXOXOXXX@Xs.Q.^.l.Z Q.+Xm.f.h.U , ",
"8 y bX[.q.D u.w.G y.y.c.^.^.^..Xs.A ]..X(.~.+X$XJ.s.T B C F [.jX$XoXOXOXOX&XOXOXOXOXOXOXOXOXOXOXOXOX+XXX).+X+X{.d.].(.h.u.g.J., ",
"0 , ^ uXt.A w.w.C w.y.w.c..X^..Xn.P .X].+XtXc.sXR m A A D N C k.yX_.OXOXOXOXOXOXOXOXOXOXOXOXOXOXXXXXOX+X+X{.+X+X(.+Xv.p.y.p.V.q ",
"0 8 n tXi.D H y.D H u.y.w.c.^..X^.h..X^.(.fXrXq.J A A M Z V M a.E.W._.).XXOXOXOXXXOXOXOXOXOXOX+XXX+X+X+X{.{.{.+X.X(.p.p.a.i.H.q ",
"0 8 i uXt.G D y.w.H u.y.y.w.f.^..XQ..X]..X].mXL N J s.l.!.W.L k.s.D s.Q.XXOXXXOXOXOX+X_.XXXX+XXXXXXX{.+X{.+X+X].].h.w.y.w.f./ 8 ",
"0 8 y pXi.H Z y.y.y.y.y.u.y.y.u.m..X(.(.(.|.aXB J !.}.@X+X#Xk.h.L ^.OX+XOXXXXXOX@XXXXXOX+XXX+X+X+X+X+X{.+X{.+X.Xm.y.y.y.t.B.b , ",
"w w < H.j.w.Z w.y.y.y.y.y.y.y.y.y.c.(.].(.$XB.B W.{.{.{.{.{.v.a.a.@X+XXXXXXX+X+XXXXXXX(.+X@X^.{.+X].{.+X{.].].^.y.y.y.y.i.K.i 8 ",
"e e 8 U [.q.D L y.y.y.y.y.y.y.a.y.y.f.~..X^.D Z (.].).{.].n.v.J (.{.{.+X+X+X{.@X@X{.+Xl.(.!.A v.{.s.{..X.X.X(.p.y.y.p.w.f.$XA.9 ",
"r w 0 u N.b.w.M H y.y.u.y.y.u.y.w.y.y.y.c.s.s.d.k.Q.n.l.l.n.a.h.@X{.+X+X{.+X).j.(.{.+Xb.y.'.M.M.H d.+X(.].(.h.y.f.y.w.w..XwXyXy ",
"r 0 e 0 u j.f.Z Z w.y.y.y.p.^.m.f.y.y.y.w.p.Q..X.Xm.v.s.a.D V (.{.+X{.{.+X].+Xh.V.XXXXsXpXpXiXrXB.'.(.(.(.f.y.y.y.y.y.c..X>X8Xp ",
"r w w e w e P y.Z Z y.y.y.f.u.a.c.c.u.y.y.y.y.f.m..X'.c.d.h.e.d.+X].{.+X+X+X+X+X.X$XnX' S V m V A n.+X(.p.y.y.y.y.y.w.m.m.m.].d ",
"r r w e e e Z u.D Z H y.y.p.J M V L h.p.y.u.y.y.w.f.m.+X{.+X].a.Q..X].(.n.Q.]. X$XbXI j V D A A M s.^.y.y.y.y.y.y.w.y.y.c./.n.s ",
"r w t e e w g p.w.Z Z y.y.y.Z A H Z Z e.y.y.y.y.p.w.w.y.f.m..X.X].{.{..Xs.d..X$XaXN B Z A A A V V P y.y.y.y.u.H w.w.y.y.y.i.J.s ",
"e r r r r r r a.p.H Z D y.w.V w.y.y.w.D y.y.u.y.y.p.y.y.y.w.u.c.c.Q.^..X{..X.XB.N C e.s.f.v.f.f.J D y.u.y.y.y.Z Z w.i.y.y.h.L.s ",
"r r r r r r e m v.p.D V L w.w.w.w.w.H G w.y.y.y.y.y.y.y.y.y.y.w.w.y.y.f.f.c.c.Z Z h.~.^.m. X.Xv.L y.u.y.y.y.Z Z Z A y.y.t.C.b p ",
"r r r d r r d e g M.f.D A G y.w.w.J G w.y.y.u.y.y.y.y.y.y.u.y.u.u.y.y.y.y.w.y.D c. X^..X^..Xf.D w.y.y.y.H Z Z Z Z A D y.c.I.s f ",
"d r r r d d d d a h M.u.D V G y.y.w.w.u.y.y.y.y.y.p.y.y.y.y.y.u.y.u.y.u.y.u.u.w.a.v.v.v.v.a.w.w.y.y.y.w.Z Z Z Z Z Z Z i.K.b p p ",
"r r d d d d d d d d r.g.y.G V D y.y.y.y.a.y.y.y.y.u.a.y.w.w.y.w.y.y.y.y.y.u.y.u.w.w.w.w.w.w.y.y.y.y.D Z Z Z Z Z Z A t.[.Z.a d d ",
"d d d d d d d d d d ^ M.z.u.w.A Z H i.y.y.y.y.y.y.y.y.y.f.c.c.u.y.u.y.y.y.y.u.y.y.u.y.u.u.y.y.y.y.D Z Z Z Z Z Z Z Y '.S.h f f j ",
"f d d d d d f d f f z J.c.n.y.w.Z Z Z w.w.y.y.y.y.y.y.f.s.u.f.v.f.w.u.y.y.y.y.a.y.y.y.y.y.y.y.w.Z A Z Z Z Z A A F Q.L.z j k j f ",
"f f g g k f f f k f h H.c. Xc.w.H A Z Z Z Z H w.y.u.y.D Z Z V Z u.y.a.y.y.y.y.y.y.y.y.y.u.w.G A Z w.q.t.Y t.t.i.C.S.c j k j k k ",
"k k k k k k k k k k g F.m.g.y.w.Z Z Z Z Z Z Z Z G w.y.w.w.w.w.w.y.y.u.u.y.y.y.y.u.y.w.w.G A V J y.x.C.J.H.J.J.K.A.x l l l l l l ",
"k k k k k h z k k k j 3.K.z.w.w.Z Z Z Z Z Z Z Z V Z D D H w.y.w.w.w.w.w.G y.y.y.w.w.D A V D e.i.~.U.Z.%.v v v %.l  . .X.....x x ",
"z z x x x x x x z x x l Z.Y.x.u.H V Z Z Z Z Z Z Z M A A V V A A Z Z V V Z G G Z A k A G e.u.x.V.L.3.l  .l l .. .X.X.X.X.X.X...x ",
"z x x x x x x x x x x x l 7.I. Xp.H Z N Z D H y.w.H Z Z A Z Z Z Z Z A A Z M A Z D w.w.y.z.'.P.Z.%. .O.O.X.O.+.o.O.O.O.+.o.+.O.O.",
"x x x o.@.x x o.o.x x @.c X.3.L.[.z.w.J w.i.z.z.z.i.y.w.V Z V A Z Z D D D w.G w.y.g.z.[.P.F.3.X.O.+.+.+.+.+.+.+.o.+.| +.+.+.O.e.",
"@.@.@.c o.o.@.c @.@.@.o.o.@.o.%.A.K.m.z.^.J.H.P.P.v.w.w.A Z A A w.w.y.w.w.p.p.z.m.J.P.D.3.| +.@.*.+.*.-.-.+.*.| +.*.*.*.*.*.*.=.",
"@.$.@.@.@.@.@.@.@.@.@.@.@.@.#.+.| 7.G.K.G.A.3.&.D.C.i.w.D Z V w.u.p.g.z.~.V.C.K.R.7.%.| +.#.#.#.*.*.-.-.-.-.;.;.;.;.*.*.*.*.=.*.",
"#.#.#.#.#.#.#.#.#.@.#.#.#.#.#.#.=.| %.4.:.@.*.+.3.P.E.i.w.w.w.w.u.m.V.Y.I.F.7.5.:.| =.=.:.;.=.=.*.;.;.;.;.;.;.;.;.;.;.;.:.;.=.=.",
"&.%.&.:.#.:.=.=.=.=.:.=.:.:.&.=.&.:.&.&.&.:.&.:.;.D.Y.C.n.m.m.z.x.^.R.6.4.>.=.=.:.:.:.:.;.>.>.;.:.;.:.<.>.>.>.;.<.<.<.<.<.>.=.>.",
":.:.:.:.:.:.:.>.>.>.:.>.:.:.:.>.:.:.>.>.:.:.>.:.>.:.6.7.F.F.G.P.P.R.6.;.:.>.,.>.>.,.>.>.,.>.>.,.,.2.>.1.>.,.1.1.2.T.2.2.,.,.,.,.",
",.,.,.>.,.,.,.<.,.,.,.,.,.,.,.,.,.,.,.,.1.,.1.,.,.1.,.>.,.1.8.4.8.5.2.,.,.,.,.,.1.8.1.1.1.1.1.1.1.1.1.1.1.1.1.1.0.9.0.1.1.1.1.,.",
",.8.1.1.8.,.8.4.,.,.1.1.8.1.4.8.1.4.,.8.1.8.1.1.1.1.8.8.4.8.8.8.8.8.8.8.8.8.8.8.8.8.0.1.1.0.0.1.1.0.0.1.1.0.0.0.0.0.0.0.1.0.0.1."
};
