/* XPM */
static char *_c829d3b2b084171b1e111c0638ab2c4hOsfHLFIFtY4PjFz[] = {
/* columns rows colors chars-per-pixel */
"64 64 238 2 ",
"   c #0E151E",
".  c #0D181F",
"X  c #11151E",
"o  c #0E1622",
"O  c #0D1B24",
"+  c #0C1E2C",
"@  c #101623",
"#  c #121B25",
"$  c #111C2B",
"%  c #191E2B",
"&  c #0E1F32",
"*  c #111F31",
"=  c #0C202E",
"-  c #15222B",
";  c #1A222A",
":  c #0D2233",
">  c #0E2638",
",  c #0E2B3C",
"<  c #112234",
"1  c #152835",
"2  c #13253A",
"3  c #14293C",
"4  c #182A3E",
"5  c #1A303E",
"6  c #232C37",
"7  c #25343B",
"8  c #26353B",
"9  c #152C42",
"0  c #162C47",
"q  c #1A2D42",
"w  c #143144",
"e  c #1C3245",
"r  c #16344B",
"t  c #1B334B",
"y  c #17394B",
"u  c #1B3A4D",
"i  c #1A3652",
"p  c #153953",
"a  c #1D3B53",
"s  c #1C3C5C",
"d  c #293946",
"f  c #22364C",
"g  c #223A4E",
"h  c #313E4E",
"j  c #233C53",
"k  c #263E56",
"l  c #213E61",
"z  c #1A4359",
"x  c #35464C",
"c  c #254155",
"v  c #294255",
"b  c #25435B",
"n  c #2B445B",
"m  c #28495C",
"M  c #2D495E",
"N  c #324A5B",
"B  c #3D565B",
"V  c #1C4867",
"C  c #1D5575",
"Z  c #274767",
"A  c #244A64",
"S  c #2C4B64",
"D  c #314D63",
"F  c #314E6A",
"G  c #2C536A",
"H  c #345167",
"J  c #34536C",
"K  c #3B566B",
"L  c #3C586C",
"P  c #2A4E71",
"I  c #2B5779",
"U  c #345572",
"Y  c #3C5B74",
"T  c #345A78",
"R  c #3C5C7A",
"E  c #2B607E",
"W  c #38617D",
"Q  c #435A5E",
"!  c #415E75",
"~  c #48646A",
"^  c #446176",
"/  c #4C6A76",
"(  c #44657C",
")  c #516F75",
"_  c #55757C",
"`  c #56797E",
"'  c #2F5981",
"]  c #345D83",
"[  c #166D94",
"{  c #28698B",
"}  c #396789",
"|  c #3C6D95",
" . c #3D7294",
".. c #1B78A7",
"X. c #357DA7",
"o. c #456887",
"O. c #4C6C84",
"+. c #526E83",
"@. c #4D718A",
"#. c #577886",
"$. c #466E92",
"%. c #487698",
"&. c #577A96",
"*. c #54799B",
"=. c #607F87",
"-. c #487BA3",
";. c #537EA3",
":. c #36919A",
">. c #1D85B5",
",. c #3C82A5",
"<. c #2587BA",
"1. c #5E8188",
"2. c #5C829B",
"3. c #64838B",
"4. c #69888F",
"5. c #648895",
"6. c #6D8C93",
"7. c #718E95",
"8. c #69939B",
"9. c #75939A",
"0. c #78959B",
"q. c #79959D",
"w. c #4A84A9",
"e. c #5985A7",
"r. c #4B89B5",
"t. c #578BB5",
"y. c #5B92BA",
"u. c #648AA8",
"i. c #6B95AA",
"p. c #799BA4",
"a. c #638EB1",
"s. c #6895B6",
"d. c #739AB7",
"f. c #729BBB",
"g. c #7BA2AD",
"h. c #78A7B7",
"j. c #7DA3BD",
"k. c #2993C9",
"l. c #3894C8",
"z. c #2F9AD3",
"x. c #32A2DC",
"c. c #37ACEA",
"v. c #31B0ED",
"b. c #4697C9",
"n. c #5898C8",
"m. c #449EDF",
"M. c #679BC4",
"N. c #47A3D8",
"B. c #5AACD9",
"V. c #6AA2C9",
"C. c #76A4C6",
"Z. c #7BAACB",
"A. c #6BAAD9",
"S. c #77ABD2",
"D. c #6FB2DC",
"F. c #4CB3EB",
"G. c #57B5EC",
"H. c #6BB9E3",
"J. c #76BAE3",
"K. c #67BCF1",
"L. c #36C9FE",
"P. c #37CDFE",
"I. c #36EEFA",
"U. c #39F2FD",
"Y. c #5AC8FA",
"T. c #4DD2FA",
"R. c #67CAF6",
"E. c #69CAF7",
"W. c #78C7F5",
"Q. c #77D6FC",
"!. c #5BE2FE",
"~. c #4AFAFC",
"^. c #58FCFD",
"/. c #68E9FD",
"(. c #76EBFD",
"). c #67FCFD",
"_. c #78FBFC",
"`. c #829EA4",
"'. c #87A3AB",
"]. c #8CA5AD",
"[. c #89ABB4",
"{. c #93AEB5",
"}. c #87B2BD",
"|. c #95B3BB",
" X c #99B2BA",
".X c #84ADCB",
"XX c #88B7C9",
"oX c #96BCC5",
"OX c #9DBCC4",
"+X c #89B8D8",
"@X c #91BAD4",
"#X c #A1BFC8",
"$X c #87BDE7",
"%X c #96C2CD",
"&X c #98C9DB",
"*X c #A1C0C7",
"=X c #A3C2CA",
"-X c #A5CAD5",
";X c #ADCBD5",
":X c #B0D1DB",
">X c #8AC7EC",
",X c #95C6E9",
"<X c #9BCBED",
"1X c #97D0EB",
"2X c #83CDF4",
"3X c #89CEF7",
"4X c #88D9FA",
"5X c #97D6F9",
"6X c #A2CAE3",
"7X c #A9D6EA",
"8X c #B7DAE5",
"9X c #ABDBF5",
"0X c #A2DCFB",
"qX c #B3DBF3",
"wX c #85EBFD",
"eX c #96E4FD",
"rX c #89FDFC",
"tX c #98F9FD",
"yX c #A1E2E6",
"uX c #B8E2EC",
"iX c #A9E3FA",
"pX c #B6E6FA",
"aX c #BCEBFC",
"sX c #A9F9FD",
"dX c #B9FBFD",
"fX c #C2E3EE",
"gX c #C5EAF8",
"hX c #CCF3FC",
"jX c #C4FDFE",
"kX c #C8F8FD",
"lX c #D7F5FC",
"zX c #D4FCFD",
"xX c #DCFDFD",
"cX c #E2F7FC",
"vX c #E4FCFD",
"bX c #ECFCFC",
"nX c #F3FDFD",
"mX c #FEFFFE",
/* pixels */
"o o o @ o + o o & o @ & & & 9 & 0 & 2 2 2 2 q * q q q q 4 0 4 4 4 q 4 4 q 0 4 4 9 q 2 2 2 2 * 2 < & * $ o o o o o o o o         ",
"+ + @ + o $ + o $ & + & & & 2 0 0 0 0 0 0 0 0 0 f t t f f f f k f k f 0 f f f q 0 j 0 q 0 q 2 0 9 & $ $ $ @ @ + o o o o o o     ",
"$ $ + $ $ $ $ $ @ o & & & 9 9 0 0 0 0 0 0 0 i k j k k k k F ! k n l n F n k k k j f i 0 0 0 0 0 9 2 * + @ $ o $ + + o @ o o     ",
"$ @ $ $ @ $ $ $ & $ & & & & 0 0 i i s s s l l l Z Z F F F F F F ! F ! $.! Z F Z Z l l j j i i i 9 2 & i 2 $ $ + @ $ o @ o o o o ",
"$ $ $ $ $ $ $ $ $ 0 0 & 9 2 0 0 s l l l Z l F F F U ! R R ! o.! ] ! o.! ! ! U U U F Z Z l s s s 0 9 2 i 9 @ $ $ + $ @ $ + + o o ",
"$ $ $ $ $ $ $ $ & & & 2 2 0 i l l l l P P ' ' ] ] o.o.+.o.o.o.+.+.o.+.&.o.] o.o.] ] ' P P Z V s i 9 9 * $ * $ $ $ $ $ $ o @ + @ ",
"$ & $ & & & & & $ & & 2 0 2 V X.l l P ' ] o.} | *.;.$.&.*.;.*.&.*.*.;.&.*.*.$.$.$.$.| ' I I Z s i 0 9 * * * * : & $ $ $ $ $ @ $ ",
"$ & + $ $ $ & $ $ & & 2 2 0 i s l P ' ] | $.%.;.*.*.;.;.;.;.;.d.;.;.;.;.*.;.;.*.*.$.$.| ] ' Z s f 0 4 * * * & < & & + $ $ @ + + ",
"$ + * + * $ + < $ & * 0 0 0 i j Z P ] | -.-.;.;.t.a.a.s.s.f.f.M.].f.f.M.S.M.a.t.e.;.-.-.| ] ' I a t q 4 < * < * $ $ * + $ + + $ ",
": * * & : * * $ & & & 2 9 0 i k Z I } -.-.r.;.M.M.M.C.C.C.Z..X.X.X.X.X$XsX>XM.f.M.s.n.r.-.W X.w.k t e 3 q % < * & & + * + + + + ",
"& < < - < - < + & * 2 0 w t s k G T | -.n.n.V.A.C.S.+X+X+X$X+X+X@X$X$X$XsX3X+XS.A.V.n.n.-.o.| I b j t 4 2 1 < - & & & + + $ + + ",
"- + : $ < : < & * * 0 0 w t a Z F ] $.;.t.A.H.J.$X$X$X,X,X,X6X,X<X<X<X<X3X>X$X$XJ.D.A.M.w.b.z.| U b e q 3 1 < * * & + * $ + + + ",
"& : < < < < & : < < 3 4 e f c A T $.%.e.M.A.W.W.W.3X5X5X5X0X0X0X9X9X0X5X5X3X3X3X$XK.H.R.Y.F.x.| S b f e 4 1 < < < + & & + 2 & + ",
"+ : : - < * + - - 2 3 q t j b F ! $.*.e.M.D.Q.eX0X9XiXpXpXaXaXaXpXgXgXqXaXpX9X0XeX4X_./.Y.F.N.%.S m g f q 4 4 1 < < : * + : + + ",
"& & & : < * < < < 2 9 0 t k Z J ] @.;.a.C.J.W.aXmXnXmXmXnXmXmXmXmXmXmXmXmXmXmXmXnXrXrX/.R.G.N.%.K N v f q 4 q 4 < < * & & + + + ",
"& < & * & : * < < 2 q 0 j k M U ! &.u.M.S.$X3XgXmXmXmXmXmXmXmXmXmXmXmXmXmXmXmXmXnXtXrX(.Q.Y.N.%.L D n g e 4 4 4 < < < & * & + + ",
"& 2 * 2 & & 2 2 2 2 q f f S } Y o.&.u.f..X$X5XhXmXmXmXmXmXmXmXmXmXmXmXmXmXmXmXmXbXsXrXwXQ.R.B.w.Y H M k f q q 2 % * * & & & & & ",
"2 & 2 * 2 & 2 & 2 2 q f f S } R O.&.u.f.+X,X5XhXmXmXmXmXmXmXmXmXmXmXmXmXmXmXmXmXnXsXtXwXQ.R.B.e.! K D h f q q 4 * 4 2 * 2 & $ & ",
"& 9 * 2 & & & 2 2 4 q f k n F ( @.2.i..X+X<X0XlXmXmXmXmXmXmXmXmXmXmXmXmXmXmXmXmXnXdXsXtXQ.E.B.e.! ! D k k q q 4 * k 0 * & & & + ",
"& * * & & 2 0 * 4 q t f n D K o.&.u.d..X@X7XiXlXmXmXmXmXmXmXmXmXmXmXmXmXmXmXmXmXnXdXsXtX4XW.H.u./ ! H N k f q 6 q * * * & & + & ",
"& 2 2 & * 2 2 2 2 4 e f v D Y O.&.u.'..X,X9XqXlXmXmXmXmXmXmXmXmXmXmXmXmXmXmXmXmXnXjXdXtXwXW.D.e.+.! K N k f q q 9 * 2 & & * & & ",
"& & & 2 2 & * 2 4 4 f f n D Y @.&.i.f..X6XqXaXcXmXmXmXmXmXmXmXmXmXmXmXmXmXmXmXmXmXjXdXsXeXW.J.i.+.! K h h f q q 9 9 & > & & + & ",
"2 & & & & 2 2 2 4 4 f j n D Y O.&.i.C.@X6XqXaXcXmXmXmXmXmXmXmXmXmXmXmXmXmXmXmXmXnXzXdXsXeX2XJ.y.+.! ! N k f q q 2 2 > & & & & + ",
"& & 2 & & & 2 2 3 q e k N H ! O.*.q.j.@X6XqXgXcXmXmXmXmXmXmXmXmXmXmXmXmXmXmXmXmXnXlXjXsXeX4XH.i.+./ Q D h f f q q 2 < : : & & + ",
"2 & > & & > > 0 0 0 0 i n H ^ O.&.i.[.@X6XqXgXvXmXmXmXmXmXmXmXmXmXmXmXmXmXmXmXmXmXzXjXpXeX4XH.i.#.^ ~ N v g e q 2 2 > & & : & & ",
"& > > > > & & > 2 0 t f n H W _ u.j..X@X6XqXgXvXmXmXmXmXmXmXmXmXmXmXmXmXmXmXmXmXnXzXdXsXyX4XW.i.#.( K N v b g 4 4 2 > > & & & > ",
"& > & > & > & 2 3 q t b M H W @.&.d.d.@X6XqXgXcXmXmXmXmXmXmXmXmXmXmXmXmXmXmXmXmXnXzXjXsXeX2XJ.i.+.( K N v d e q 3 e 3 : : = + > ",
"> & > & & , s 2 3 q e c m H ~ @.&.u.[..X,XqXaXcXmXmXmXmXmXmXmXmXmXmXmXmXmXmXmXmXnXzXdXsXeXQ.H.i.+.( K N v e e q 3 2 < < : & & + ",
"& > > & > > > > 3 q e c n D W ( &.i.d.@X-X9XpXlXmXmXmXmXmXmXmXmXmXmXmXmXmXmXmXmXnXzXdXsXeX2XR.i._ ( H N j f q 4 9 > > : : : & + ",
"> & & > & & & 2 2 q e g b D L O.&.i.d..X@X7XpXlXmXmXmXmXmXmXmXmXmXmXmXmXmXmXmXmXnXjXsXtX4XW.D.a./ ! Y D d f q q 9 > : : : & = + ",
"& > > & > & > 2 3 3 e f c m L O.#.u.'..X@X7X0XlXmXmXmXmXmXmXmXmXmXmXmXmXmXmXmXmXnXdXsXtX4XW.H.e./ Y H N j f q 9 > & > : : = & + ",
"& & & & & > & 2 > 3 w g c J L W +.;.d.C.$X7X0XlXmXmXmXmXmXmXmXmXmXmXmXmXmXmXmXmXnXsXsXwX4XR.B.e.( L N v f q q 9 > > : : = + = = ",
": + : : : : : : 1 3 w t k S H ( @.2.i.Z.+X<X5XhXmXmXmXmXmXmXmXmXmXmXmXmXmXmXmXmXbXsXtXtXQ.R.B.2.W K m v g 5 1 { { : > = = = = + ",
"+ : + + = = : : < 1 4 t j c H Y O.2.e.f.Z.,X3XhXmXmXmXmXmXmXmXmXmXmXmXmXmXmXmXmXnXsXrXwXQ.R.B.w.L H x c e 5 1 C C = < = = = + = ",
"= = : + = = + = < 1 4 e u c S Y o.&.e.d.S.>X3XhXmXmXmXmXmXmXmXmXmXmXmXmXmXmXmXmXbXtXrX(.E.Y.Y. .L N b g e 3 2 - - : = = = = = + ",
"= : = : + = E p = 2 3 w r c m J W @.e.s.V.+X2XgXmXmXmXmXmXmXmXmXmXmXmXmXmXmXmXmXbXtXrX(.R.G.F.1.H m c u 5 3 3 1 > : < = + = + O ",
"= = = + = = [ z + > 2 w r a m H W @.2.y.V.J.W.gXmXmXmXmXmXmXmXmXmXmXmXmXmXmXmXmXnXrX_./.R.F.N. .H m j t 5 1 1 > : : = = = + = + ",
"= : = : = = + = = : , w r u b G T $.w.e.M.H.W.pXmXmXmXmXmXmXmXmXmXmXmXmXmXmXmXmXbX_.)./.Y.F.l.} G m u w 3 1 > 1 : & : = = = = + ",
"= + + = = = : = = = > 3 w y A S Y } w.2.M.D.K.pXmXmXmXmXmXmXmXmXmXmXmXmXmXmXmXmXbXrX).!.Y.F.l.} b c y w 3 > : : : : = = = = + : ",
"+ = + + = = = = = > w > w y u A G W  .w.y.A.K.iXmXmXmXmXmXmXmXmXmXmXmXmXmXmXmXmXbX_.).T.T.x.l.} c a r 5 2 = : = = & = + = = = > ",
"= + + = + + = = = = : , , w y b G W } w.t.V.G.iXmXmXmXmXmXmXmXmXmXmXmXmXmXmXmXmXbX_.^.T.T.c.l.I a y w 1 w z = = = = = = O = O O ",
"= = = + = & + = O = = > , w y z G E W w.r.B.G.iXmXmXmXmXmXmXmXmXmXmXmXmXmXmXmXmXbX).^.T.F.x.<.I a y 5 > , p = + + = = = = = = = ",
"+ = + = + = = + = = = , , w r z m E W %.r.n.G.iXmXmXmXmXmXmXmXmXmXmXmXmXmXmXmXmXbX^.~.T.v.x.<.C y w , > = = = = = = = = + = O = ",
"+ + + = = + = = = = = : , , w z A G W ,.w.n.F.iXmXnXmXmXmXmXmXmXmXmXmXmXmXmXmXmXbX^.~.T.v.z.<.I r w , > = = = = + > , = = + + O ",
"+ + = = + = = + = = = = > , w z A G E  .w.n.m.iXmXmXmXmXmXmXmXmXmXmXmXmXmXmXmXmXbX^.~.P.c.z.>.C w w > = = = + = = = + = O O = O ",
"O = O O + O + + = = = = > , w y z A T | -.b.m.5XmXmXmXmXmXmXmXmXmXmXmXmXmXmXmXmXbX^.U.P.v.k.>.V w 9 > = + = + O + + O O O = O O ",
"= O = = O = O = O = = = > , , y z A I { X.b.m.iXmXmXmXmXmXmXmXmXmXmXmXmXmXmXmXmXvX^.~.L.v.k...V , , > = = + + = O = = O + O O O ",
"+ O O + O + O O = = = = : > , p z m P }  .r.m.5XmXmXmXmXmXmXmXmXmXmXmXmXmXmXmXmXvX~.U.L.x.k...V , , > > : O + + O O = O O + O O ",
"O . = . O O O = . = = = = > , z z m G I  .w.N.5XmXmXmXmXmXmXmXmXmXmXmXmXmXmXmXmXzXU.I.L.v.>...V , 1 = = = O O O O = # O O O O O ",
"O = O . O O O O . . O - - - 1 1 e v G W  .w.N.iXmXmXmXmXmXmXmXmXmXmXmXmXmXmXmXmXxXI.I.L.z.>.[ z , = = - O @ O - . . O O O . . . ",
"O . . = O O O O . O = = - : = 5 e z m G W ,.<.5XmXnXmXnXmXmXmXmXmXmXmXmXmXmXnXmXvX~.I.P.z.>.[ z - = = = O O O O . . . O . . . . ",
"O O O . # @ @ @ O # . @ . . - . % 4 6 d x n / uXxXxXvXbXbXbXbXnXnXbXnXnXbXvXvXxXzXyX:.k.z.>.[ z 1 = - - # @ @ @ = . . . @ @ . . ",
"  o @ @ @ @ @ @ @ @ o @ O @ @ @ # % ; 6 6 x %XjXkXzXzXvXvXvXbXbXbXbXvXvXvXxXxXzXkXjXoXd y C [ z - - $ @ @ @ @ @ $ X X O X X X X ",
"@   @ . @ @ O @ @ @ @ # o @ @ @ # ; 6 ; x %XdXaXkXkXzXxXxXxXxXvXxXvXvXxXxXzXzXkXjXaXsXXX8 . O = + * $ # @ @ @ X X O X X . X X X ",
"@ @ # X @ @ @ # @ @ @ @ @ @ @ @ @ ; - x h.iXiXaXaXkXhXhXzXzXzXzXxXzXzXzXzXzXkXkXaXaX9XeXh.8 . O @ # $ $ @ @ @ @ @ O X @ @ X X X ",
"# @ # # # @ # # # $ # @ # # # # # - d p.1X&XyXuXuXgXgXgXgXhXhXhXhXhXhXhXgXgXpXpXuXyX7X-X1X8.5 O # # @ # $ # # # @ X # @ # X X X ",
"# # # . # # . # # @ # # # # # # - 8 5.%X%X&X-X7X8X8X8XfXfXfXfXfXgXfXfXfXfX8X8X8X:X:X&X&X%XZ.1.8 X # # X # # - . # # # . . . . X ",
"# # # # # # # # # # # # # # $ # 7 ` h.h.h.%X%X=X;X;X:X:X:X8XfX8X8X8X8X8X8X:X:X;X-X&X%X%X}.h.h.` 8 # # # # # . . # # # . ; . . ; ",
"# # # # # ; - # % # - # ; - - 7 ) 8.i.g.}.}.oX*X#X=X;X;X;X;X;X:X:X:X;X;X;X;X;X*X*X|.|.}.h.g.p.8.) 8 X - # # . - # # # # # # ; # ",
"# ; - # - # - . % # # - # ; 7 ~ 1.8.8.p.g.[.{.{. XOX X#X#X#X#X=X#X*X#X#XOXOXOX X|.|.[.'.g.p.8.8.3.~ 8 ; # ; - . - # - # - # - # ",
"- # - # - - - - - # - o - 6 Q _ 3.4.6.9.0.`.`.`.].{.{.{. X X X X X X X X{.{.{.].].'.p.q.0.9.6.4.3._ Q 8 - - - - - - - - - # - - ",
"- - - - - - - - - - - - 8 B ~ _ #.=.4.6.7.9.`.`.`.].`.].].].].].].].].].].'.'.'.'.q.0.0.9.6.4.3.1.` ~ B 7 - - - - - - - - - - - ",
"; - - - - ; ; - - - - 8 x Q ) _ =.=.3.4.4.7.7.`.9.`.`.`.`.`.`.`.].`.`.`.`.`.`.0.0.0.7.6.6.4.3.1.#.` ) ~ x 7 ; - - - - - - - - - ",
"- - - - 1 - - - - - 8 x Q ~ ) _ _ =.=.=.3.4.4.7.7.9.9.0.q.q.q.q.q.q.0.0.7.9.7.7.7.7.6.6.4.1.3.` ` ) ) ~ B x 7 - - - - - - - - - "
};
