/* XPM */
static char *_03b35e31c5946fdc10b1576497fa497iCfYfZrJ0BTjlAbQ[] = {
/* columns rows colors chars-per-pixel */
"64 64 256 2 ",
"   c #000105",
".  c #01040B",
"X  c #07080C",
"o  c #000611",
"O  c #010914",
"+  c #050A1A",
"@  c #000D1C",
"#  c #1C0E10",
"$  c #09111B",
"%  c #18151C",
"&  c #271414",
"*  c #3A141B",
"=  c #2C221C",
"-  c #000E22",
";  c #070B29",
":  c #170D2A",
">  c #011125",
",  c #0B1527",
"<  c #01142B",
"1  c #181924",
"2  c #001633",
"3  c #001935",
"4  c #03163B",
"5  c #011B3C",
"6  c #0B1A38",
"7  c #18193A",
"8  c #2E112D",
"9  c #291A38",
"0  c #0D233B",
"q  c #2D2832",
"w  c #590C18",
"e  c #740C19",
"r  c #711013",
"t  c #69381A",
"y  c #4B142B",
"u  c #591529",
"i  c #491939",
"p  c #591A37",
"a  c #671327",
"s  c #79112C",
"d  c #761828",
"f  c #681739",
"g  c #4D2B31",
"h  c #6C2D2F",
"j  c #73431C",
"k  c #6C472D",
"l  c #001D43",
"z  c #011D4B",
"x  c #0A1B49",
"c  c #131944",
"v  c #14154E",
"b  c #071854",
"n  c #32194E",
"m  c #241F56",
"M  c #012145",
"N  c #01234B",
"B  c #08274B",
"V  c #192747",
"C  c #002552",
"Z  c #0A2754",
"A  c #012A54",
"S  c #012659",
"D  c #002C5B",
"F  c #162756",
"G  c #06325D",
"H  c #2F2C4F",
"J  c #3C2447",
"K  c #292758",
"L  c #0F1B6B",
"P  c #291E70",
"I  c #0B2667",
"U  c #012E62",
"Y  c #182B67",
"T  c #013264",
"R  c #003B67",
"E  c #04326B",
"W  c #0A326E",
"Q  c #18326D",
"!  c #0A2A76",
"~  c #182A78",
"^  c #063676",
"/  c #0C3373",
"(  c #0B357B",
")  c #133375",
"_  c #14347C",
"`  c #1A367A",
"'  c #282A68",
"]  c #31336F",
"[  c #262D79",
"{  c #25377A",
"}  c #491A46",
"|  c #4F1D4D",
" . c #6E1E4A",
".. c #4E2D4C",
"X. c #582756",
"o. c #722B4A",
"O. c #4A2B6B",
"+. c #692C6D",
"@. c #35415E",
"#. c #3A4578",
"$. c #5F5552",
"%. c #715245",
"&. c #4B517B",
"*. c #726D69",
"=. c #960C0E",
"-. c #890B16",
";. c #9A0917",
":. c #8A1515",
">. c #A5060B",
",. c #B8030D",
"<. c #A20415",
"1. c #A90718",
"2. c #B20514",
"3. c #B60819",
"4. c #B21518",
"5. c #8C3515",
"6. c #8C132C",
"7. c #A90924",
"8. c #B80B25",
"9. c #A61428",
"0. c #BA1829",
"q. c #B11534",
"w. c #8E2730",
"e. c #B42934",
"r. c #CA000F",
"t. c #C70918",
"y. c #C7121C",
"u. c #C70B28",
"i. c #C91728",
"p. c #D6122F",
"a. c #E11632",
"s. c #CF2332",
"d. c #8E5229",
"f. c #B35E23",
"g. c #AA6323",
"h. c #B26E32",
"j. c #D85E1F",
"k. c #D66F17",
"l. c #EA7607",
"z. c #E87715",
"x. c #CE7A29",
"c. c #871C46",
"v. c #912645",
"b. c #8E4F4F",
"n. c #A75658",
"m. c #8E6E54",
"M. c #A47751",
"N. c #945860",
"B. c #986E67",
"V. c #A97968",
"C. c #C56C5D",
"Z. c #DD8612",
"A. c #EF8B0D",
"S. c #EA8815",
"D. c #F18A14",
"F. c #C9823A",
"G. c #EA8827",
"H. c #B3855B",
"J. c #87807E",
"K. c #B69070",
"L. c #CA8058",
"P. c #C99462",
"I. c #D1A977",
"U. c #EABA7B",
"Y. c #ECC07A",
"T. c #0A2C89",
"R. c #162B85",
"E. c #0B3687",
"W. c #143481",
"Q. c #1B3484",
"!. c #163987",
"~. c #1D348A",
"^. c #0E2C9C",
"/. c #093698",
"(. c #153697",
"). c #302F87",
"_. c #243887",
"`. c #23348C",
"'. c #29338F",
"]. c #253492",
"[. c #2C3393",
"{. c #263893",
"}. c #2D359A",
"|. c #323396",
" X c #34329B",
".X c #3A329D",
"XX c #373B9C",
"oX c #0A37A8",
"OX c #033BAB",
"+X c #1539A6",
"@X c #062DB2",
"#X c #083AB6",
"$X c #033CBB",
"%X c #113BB6",
"&X c #263AAC",
"*X c #3D32A1",
"=X c #3C3AA1",
"-X c #4233A4",
";X c #4436A9",
":X c #164495",
">X c #304B94",
",X c #0841AB",
"<X c #1743A8",
"1X c #0845B7",
"2X c #0342BB",
"3X c #1444B7",
"4X c #2D4BAF",
"5X c #3963A5",
"6X c #57568A",
"7X c #5C6D87",
"8X c #6F6F90",
"9X c #424EAF",
"0X c #586BAF",
"qX c #7172AF",
"wX c #043BC3",
"eX c #0839C7",
"rX c #123AC5",
"tX c #083FD5",
"yX c #0343C5",
"uX c #0846C9",
"iX c #1245C7",
"pX c #0743D3",
"aX c #0554D2",
"sX c #3858C2",
"dX c #0348E1",
"fX c #5D5CC6",
"gX c #4769D1",
"hX c #4B73E2",
"jX c #917B81",
"kX c #7B8AA9",
"lX c #7185CF",
"zX c #958A94",
"xX c #B6968F",
"cX c #B0A890",
"vX c #9798B5",
"bX c #B2A8B1",
"nX c #CD9D89",
"mX c #D3B18C",
"MX c #E8BB85",
"NX c #F1BD83",
"BX c #C297A4",
"VX c #C2BAB6",
"CX c #BEC0AF",
"ZX c #F1C588",
"AX c #DCC4B9",
"SX c #98A6CB",
"DX c #B3BACB",
"FX c #B5C2CF",
"GX c #D2D1CE",
"HX c #E3E4DA",
"JX c #DAE3E1",
"KX c #E7E7E7",
"LX c #EAEFEE",
"PX c #F4F2EC",
"IX c #F2F3F3",
"UX c #FAF9F7",
/* pixels */
"                                                            X         X X                                                       ",
"          X                                 . X         X # X   X                                                               ",
"        X $   .   .       . .               $ .       . = d.j %.d.t t *   X   X X       .     .   X X     .       .             ",
"  X X     . . .         . .       .             . X   & h.D.A.G.S.S.G.t # # X   . .     X           X     .         X X       . ",
"  . . . . . . . .   .   X . . . .   . . . . . . . o o t k.D.A.l.l.l.z.k.j.t     . . .   . X           .   . . . . . X . . .   . ",
"  . . . . . . . . .       X . . . . . . . . o o . . o d.A.A.Z.A.D.l.z.l.D.g.&     . . . . . . .   X . X .     . X .       X . . ",
". o . . . . . . .   . . .   . . . . . . . o o o . o & x.A.A.l.D.D.A.z.l.D.d.# .   . X . . . .     X . O . .   .       . . . . . ",
". o o . . o o . . . . . . . . . . . . . o o o o o o k D.Z.k.Z.F.z.f.f.k.l.t o . . . . $ . . . . . . . . . . . . . . . . . X . o ",
"O X O . . O O . o o . O . o O o . o . O O O o o @ $ h.S.x.H.P.H.H.m.M.x.S.t o o o o . . o . o o . . . . . . o . . o O X . . . O ",
". o O . O O O o . o o O o o $ O o O O O O O O O O $ k F.P.ZXU.I.ZXNXP.d.h.= o + o + o O . o O o O O O O o X O X + $ . O O . X O ",
"O O O O o O O o O O O O o o . O O o O O + O O + O O 1 %.MXZXZXY.Y.Y.NXK.g @ @ @ O O O % o O O o O O O X X O O O $ O o o O O O O ",
"O O O O O o O O O O O O o o O $ o O o O O @ O O O @ @ 1 K.ZXMXZXH.I.ZXmX% o @ @ O O o o o + + O O O O O O O O . O o O o O O . O ",
"O O O O O O O $ @ @ O O O O O $ O O O O O O O O @ @ - - %.I.H.mXI.U.ZXm.. # @ @ O O o O + + + O O O O @ O O O O @ O @ X X O O O ",
"O @ O O O O O @ - @ O @ O O O O O O @ O O + - O O @ - - 0 H.K.I.ZXU.I.q O k h - O - - - - , O + @ @ O @ O O O O O @ O O O @ O O ",
"O $ @ O O O @ @ @ O O O @ O O O O O O + @ @ - 1 g $ + + o g I.mXI.U.%.O + %.k + @ @ - - - > - O O O @ @ @ @ O @ @ O @ O @ O O @ ",
"@ O O @ O @ @ @ @ @ @ O @ O O , @ @ O @ @ @ - 9 d., @ @ o 1 xXK.I.m.# , : $.q - ; @ O - - + + O @ @ @ @ @ @ @ @ @ @ O @ O @ O $ ",
"@ @ @ @ @ @ @ @ O - @ @ @ @ @ $ @ @ @ @ @ @ @ > q g % * w h cXxXVXxXg r g ..; - - - @ - @ @ @ O @ @ @ > - @ @ - @ @ @ @ @ @ @ @ ",
"@ @ > @ @ @ @ @ @ - - @ @ @ > $ @ @ @ @ @ @ > - = b.h :.4.d VXzX6X6X*.w.:.u + - - - - @ @ - - - @ > @ > > > - > @ - - - > @ @ > ",
"@ @ > @ @ @ @ $ - - - - - @ > @ @ @ > - @ @ @ - > Q ..w 9.<.xX7X0XlX&.w.4.:.m z - - - @ @ - - + > - - - > @ > @ - - - - > > > > ",
"@ @ @ > > > @ > - - - - > - @ > > @ @ > > > - > ! ,X:XR.d ,.b.7XfXqX7Xv.,.s /./.b > @ - - @ - - @ @ - - @ > > @ - > > - > > > > ",
"@ > > > < > > @ > > < < > - - > - - 6 < 2 > - I OX^.@X@XK e e.bXkX8XFXb.;.} T.oXoXI - > < > 2 ; < > > > - - > > > > > > @ > > > ",
"> > > > < > > > > - > 2 < > > - < > , 2 4 < x %XeXoXOXR.+Xm s BXIXbXKXn.6.[ ~ (.uXOXI 2 ; l l l 4 < , < > > > > > < > > > < > > ",
"> < > < > < < < > < > 2 < > > < < 2 < 2 3 l ^.wXrX%X^.` @X(.y N.IXAXKXn.f R.(./.tXOX+XI 4 z N C z 2 > > > > < > < > > , > > < > ",
"< < < < < > < 3 < 3 4 < < 2 > < < 2 2 2 4 (.uX#X#X+XL 6 #XeX' d AXKXKXB.8 +X! /.#X$X@X/.x 2 l S b l 2 < < > < < > < > 0 < > < < ",
"< < < < < < < 3 < 5 5 3 3 2 < 2 2 4 2 < I uXuXtX#XE.4 > /.yX%X8 nXKXLX*.F +Xx 4 L @X@X@X! 2 3 l z z 3 < < < < < < < < < < < < < ",
"< < < 3 < 3 3 < < 3 5 l 4 4 3 2 4 3 3 < b 3XuX$X$X/.x > v /.wXm o.KXUX*.T.! 2 4 4 ! oX^.R.c < 5 5 l 4 2 3 6 3 < < < < < < 3 3 < ",
"3 3 3 3 3 < 3 3 2 3 5 5 5 l 3 3 4 3 3 3 < I iXyXeXOX<Xz y n oX_ y K.nXo.T.I l z z l ~ n f s s y 7 2 5 4 3 5 3 3 3 < 3 3 3 < 3 3 ",
"5 5 5 5 3 3 3 3 3 5 3 l M l l 5 l 3 4 3 3 2 I +XpX%X3XI r ;.n E.9 d.j...oXI l z b l a 9.4.y.p.i.y 3 3 5 5 5 5 5 5 3 < 3 3 3 3 3 ",
"l M l l 5 3 3 3 3 5 5 M M M l 5 5 5 3 5 3 3 3 Z /.aXE.y 7.y.s ~ n 5.z.$.OXb 5 z B a 8.u.8.3.1.9.9 3 l 5 l 5 l 5 5 5 3 3 3 3 3 3 ",
"l N N z l l 5 3 3 3 5 N 5 5 5 M 5 5 0 B 3 5 5 3 M ` J =.4.1.h #.P 5.f...OXI l z 9 -.9.9.9.e.C.M.9 l l l l M M M 5 5 5 5 0 3 5 0 ",
"C Z G C z l 5 5 5 5 5 5 5 5 5 5 l l 5 5 l 3 5 5 7 d 4.9.4.:.B.>X~ o.nX6XOX/ 4 5 5 8 9.:.m.NXY.I.] z z l M M M M B 5 5 0 0 5 5 0 ",
"z G G A z 5 5 5 5 5 5 5 5 5 M M l l l l M M B 5 B u 9.8.=.L.J./.!.zXUXSX#XE.3 l l M d d K.U.I.m.q C N l M M N N B 5 5 B 5 5 5 5 ",
"N C C N l l 5 l M 5 M l l l l z M M M M M 5 M M M 5 9 u V.nX6XeXI VXUXDX$XOXl N N N 7 n H H.zXFX@.l N M N N N N N l 5 5 M 5 5 5 ",
"M z z l l N M z N M l l l l M N M M M M M M M l 5 Z +X!.#.[ @XeX{ HXIXKX4X2XZ N N N N N 5 >XSXGX7 B B N N N z N N M M 5 5 M 5 M ",
"M M l M M l N C N B l l M N z N N M M M M M M B M ) yX1XoXoXeX^.8XUXLXUX0XOXW.b N N N M l F @.H l N N N N M N N N N M 5 0 M N M ",
"N M N N M M z C A C B M N M N M M N M B N M N M b +X2X$XtXwXeX_ GXUXJXUXDX,X1XI A N M M M M 5 V Z N N N N N M B C N A N N M M M ",
"N N N C C C z C S C N N N N N N N N N N N N N M ~ rX@XOX$X$X^.kXUXKXGXUXJX5X2X(.b N B B M N M V Z N N M M B N A B A A A B N N M ",
"C C N C D C S C C C S C C C N C C N A N N N N Z %X$X$XwX$X@X>XKXPXHXGXPXUXvX/.yX_ z N N M M B c F N N N N A A A G A A N B B N N ",
"D C C C S S S C C D S S D U D D C A N A N A Z (.uXyXtXwXuX+XDXIXUXCXGXPXLXjXT 1XyX!.Z N N B N 6 V N N N N N A A A B A N A B N M ",
"S C N C C D D C C S D U G T R G S C N A A A ` yXwXwXtXpXOXSXUXPXVXcXPXPXJXB.i !.%X1XE.A N N C V F A B B N B N N A A A A A N A B ",
"S C N A A S D A Z S D D D T T D S A C C C W.pXeX%XwXuXeX0XIXIXHXVXAXUXPXKXB.9.} !.%X$XE.A C A Z V A B B N N A A B A A A N A N A ",
"D S A C A D S A D D T D D G T D D S D S ( iXdXpXtXuXyX5XJXIXKXPXGXGXUXLXPXK.=.6.c Q.rXwXE.A A B x A A A A A A A A A B A A A A A ",
"D S A A A D S D U D D D D D D U U U U W.pXpXuXpXuX3X~.FXUXIXLXIX*.$.GXJXbXh =.7.6.8 ! oX#XE.A N M A A A G G A A A A A A A D D D ",
"S A G D A D S D D D T S D D A D E I E.%XeXyXwXyX1X' y | vXJXKXzX6 4 F >X>X .;.<.8.-.w ' ^.3X(.b 4 G A A A A D A A A A G G A D D ",
"D D G D D D D D D T U D D D D D / /.uXuXwX$XwX%XR.f d : L #.] Q c L (.sXgX| ;.;.1.1.<.s } P +X_ 6 A D D D A D D D D D D T G G U ",
"D D D D D D D D U U U U T T T E oXiXtXyXOXeXrX_ f 7.:.7 ].! ! _ ; L 4XgX0Xp ;.7.<.;.=.;.;.-.u P E _ A D D D D D D G D D G T U U ",
"D D D D D T D T U U T T T R T (.uXtXyX$XeX#X[ w <.2.r v ^.(.^.Q : L 4XhX4Xu <.<.1.1.;.;.>.,.1.a 9 ] ' F G D D D D T D D T U U U ",
"D G U D T D T T T T U T R W OXuX#X2X$X%X+XK a 1.7.7.w b &X+XT.' 8 b gXhX}.u <.<.;.<.1.7.1.7.8.-.r 1.6.p J F T D T D T T T U U T ",
"T D T T T G T R T T T U / ,X1X2XOX2X%XY i e 7.1.7.8.w v &X+XT.J w v 4XgX`.u 1.<.;.>.>.2.3.8.r.r w 8.<.>.;.s } F R R T T E E E T ",
"T T T T T T T E E T D E.3XuX%X2X2XW.m a 7.8.7.1.3.3.-.c +X&X^.} r c 4XgX>Xu >.;.<.2.>.>.2.,.3.w u 2.2.1.>.r.1.d q Y E E E E E E ",
"T T T E R E E E E E (.iXiXyX2X:XK w :.1.3.3.3.3.2.2.;.9 T.4X4Xp =.v <XgXgXX.-.,.>.>.>.>.2.,.t.e -.3.2.,.3.3.3.3.8.h K W ^ W ^ E ",
"W E W E E E W W E E.rXrXOX(.Y y 9.4.1.2.2.3.3.3.,.>.-.8 ~ ^.sXO.e c }.sXhXfX| y i i | } | | i g d 1.t.t.t.t.t.t.t.4.o.K W ^ ^ / ",
"W / / W W / ^ ^ 1XuX,XoXQ p 6.p.u.3.8.u.3.2.9.6.f } K 7 L /.<X] ..c Y 9XhX<X_.( ( ^ ( ^ ^ ^ ^ K ) ' J | 6.q.t.t.i.u.a.v.K ^ ( / ",
"/ / / / / ) ` 1XuX3X/.H w.q.p.u.0.t.y.9.w.X.] Q ( ( E.c F /.+X{._ I W _.>X<X:X' ! ) ~ ( ~ ) ) Y W.( E.E.( ) ' X.c.q.a.a.w.Q E._ ",
") _ ) _ _ Y <XuX,X{ f i.p.a.i.i.0.w.X.' W.W.W.W._ _ _ Y v {.&X>XQ W.!._ ) { { ) ) _ ( _ _ _ ` { _ ` W.W.W.!.E.E.W.] O. .c.] !.` ",
"_ ` _ _ Q :X3X<XK d 0.p.a.a.0.o.] Q.W.!._ W.` R.Q._ _ !._ ~ 4X<XQ._ ` :X!.W._ Q.Q.W.Q.W.Q.W.W.W.!.!.!.Q.!.Q.!.Q.~.~.!.W.W.!.!.!.",
"W.~ W.{ W.$X:XK w.i.i.i.e.o.O.Q.Q.Q.Q.~ Q.W.~ Q.Q.R.Q.W.~.Q ' (.(.[ !.~.Q.Q.Q.Q.R.~.~.~.R.~.R.~.~.!.~.~.~.~.~.R.~.~.R.].(.~.~._.",
"_.Q._.Q <X,XJ 9.s.p.q.X.] ~.~.Q.R.~.`.`.`._.~.`._._.`.~.~.`.Q.[ [ ).`.`.`.`.`.`.'.R.`.`.`.`.`.~.{.{.~.].].].(.].`.].].].`.].`.>X",
"`.`._.W.<XX.s.s.q.+.] ].`.`.'.`.'.'.'.R.`.`.`.`.`.`.`.`.'.'.`.[.'.'.`.`.'.'.'.'.`.`.`.`.'.'.'.`.].].{.{.}.].[.[.].}.}.].{.].{.].",
"'.'.).{.O.i.s.o.] {.[.'.'.'.[.'.'.'.[.[.'.'.'.'.'.'.'.'.'.[.[.'.'.'.[.[.'.'.[.{.[.[.[.[.[.}.[.[.[.}.}.}. X].}.}.}.}.}.}.}.}.[.[.",
"|.[.).X.v.q.).|.[.|.|.|.[.|.[.|.). X[.).|.|.|.).[.|.|.[.|.|.|.|.|.[.|.|.|.XXXX|. X|.|. X}. X X}.|. X}. X}. X*X&X}.XX=X XXX X X X",
"|.|.] o.+.)..X=X|.|.|.|.|.|.|.|.|.|. X X). X X|.|.|. X|.|.|.=X|.|. X X X|. X|.|. X*X X X X X X*X.X X*X=X X*X X*X=X9X=X=X X X X X",
".X.X|.)..X.X.X.X.X.X.X.X X.X.X.X X.X.X.X*X*X.X.X.X.X.X.X.X.X.X.X.X.X.X-X.X.X.X.X*X-X*X*X*X*X*X*X*X*X=X X*X*X*X*X-X;X;X*X*X*X*X*X",
".X-X-X-X.X-X.X*X.X.X*X*X-X*X-X-X*X*X*X*X*X*X*X*X-X*X-X*X*X-X-X-X-X;X-X-X-X-X-X-X-X-X-X*X*X;X;X*X-X;X-X*X-X;X*X;X;X;X;X;X*X-X-X-X"
};
